<?xml version="1.0" encoding="UTF-8" standalone="no"?>
<!-- Created with Inkscape (http://www.inkscape.org/) -->

<svg
   version="1.1"
   id="svg2"
   width="304.48499"
   height="205.065"
   viewBox="0 0 434.97874 292.95012"
   sodipodi:docname="router.svg"
   inkscape:version="1.2.1 (9c6d41e410, 2022-07-14)"
   xmlns:inkscape="http://www.inkscape.org/namespaces/inkscape"
   xmlns:sodipodi="http://sodipodi.sourceforge.net/DTD/sodipodi-0.dtd"
   xmlns="http://www.w3.org/2000/svg"
   xmlns:svg="http://www.w3.org/2000/svg">
  <defs
     id="defs6" />
  <sodipodi:namedview
     id="namedview4"
     pagecolor="#ffffff"
     bordercolor="#000000"
     borderopacity="0.25"
     inkscape:showpageshadow="2"
     inkscape:pageopacity="0.0"
     inkscape:pagecheckerboard="0"
     inkscape:deskcolor="#d1d1d1"
     showgrid="false"
     inkscape:zoom="1.3561003"
     inkscape:cx="240.7639"
     inkscape:cy="161.12378"
     inkscape:window-width="1920"
     inkscape:window-height="1001"
     inkscape:window-x="-9"
     inkscape:window-y="-9"
     inkscape:window-maximized="1"
     inkscape:current-layer="g8" />
  <g
     inkscape:groupmode="layer"
     inkscape:label="Image"
     id="g8">
    <g
       id="g170"
       transform="translate(-43.665134,-23.070374)">
      <path
         style="fill:#2b0000;fill-opacity:1;stroke-width:2.0339"
         d="M 209.91325,309.02763 C 138.29917,301.81734 79.1342,278.71836 58.176503,249.78711 l -5.890375,-8.13142 v -55.62703 c 0,-30.59487 0.375348,-55.62704 0.834106,-55.62704 0.458757,0 6.163419,5.12061 12.677026,11.37914 32.72117,31.4398 110.42567,51.6717 198.45506,51.6717 86.98906,0 164.9686,-20.34359 197.39069,-51.49601 l 11.66008,-11.20347 -0.0142,56.265 c -0.0142,63.99515 0.81413,60.48405 -18.10108,76.62978 -21.92104,18.71146 -59.73342,33.09287 -106.97026,40.68468 -38.63915,6.20998 -101.92211,8.35832 -138.30509,4.69519 z m 8.13559,-119.6176 c -24.70756,-2.6531 -55.0126,-7.76363 -74.11505,-12.49849 C 106.09433,167.5324 68.270596,147.40923 58.36976,131.38934 49.301482,116.71656 51.523133,98.13409 63.972641,84.52541 88.67776,57.519997 154.39872,37.193692 237.5857,30.830027 c 91.12674,-6.971044 200.39905,20.724175 228.82831,57.996853 7.07884,9.28084 9.24692,29.12468 4.22982,38.71434 -14.05963,26.8735 -61.39298,47.37335 -135.64583,58.74759 -24.91678,3.81681 -93.44016,5.64561 -116.94916,3.12122 z m -3.05084,-17.6039 c 15.10169,-2.95797 28.22833,-6.06324 29.17029,-6.9006 0.94198,-0.83737 -1.62236,-2.62315 -5.69854,-3.9684 -4.07617,-1.34526 -7.13501,-3.22839 -6.79743,-4.18474 0.33761,-0.95634 7.02566,-7.50531 14.86237,-14.55326 7.83671,-7.04796 14.70112,-13.70172 15.25424,-14.78614 0.55625,-1.09057 -5.74099,-3.1013 -14.0914,-4.49944 l -15.09708,-2.52776 -17.06686,14.37189 c -16.83142,14.17361 -17.19135,14.35322 -26.08937,13.01888 l -9.02249,-1.353 v 15.37886 c 0,13.29003 0.48344,15.37906 3.55932,15.38035 1.95762,8.2e-4 15.91525,-2.41867 31.01695,-5.37664 z M 433.82616,137.2732 c 12.11394,-10.34927 13.3788,-12.97328 6.2535,-12.97328 -2.61187,0 -24.14237,-3.20339 -47.84556,-7.11864 -23.7032,-3.91525 -43.76114,-7.15156 -44.57319,-7.19179 -0.81206,-0.0402 1.26929,-2.32382 4.62523,-5.07465 3.38916,-2.77807 4.82892,-5.00599 3.23867,-5.0116 -6.80442,-0.024 -61.20478,11.04603 -61.20478,12.45469 0,2.44292 14.27925,26.17928 15.74886,26.17928 0.72417,0 3.67786,-2.26215 6.56374,-5.02699 l 5.24705,-5.027 36.55916,6.83888 c 20.10755,3.76139 41.13543,7.74585 46.72865,8.85436 16.1782,3.20632 17.07936,2.98925 28.65867,-6.90326 z M 197.38249,112.09653 c 15.00961,-3.35593 28.77441,-6.10169 30.58844,-6.10169 1.81404,0 3.29825,-0.96548 3.29825,-2.1455 0,-2.51033 -15.88432,-26.32908 -17.55842,-26.32908 -0.62461,0 -3.68258,1.81356 -6.79547,4.03013 l -5.6598,4.03014 -49.15526,-8.15968 c -27.0354,-4.48782 -50.2569,-7.50429 -51.60333,-6.70326 -5.04533,3.0016 -21.76143,17.65879 -21.00361,18.41661 0.43386,0.43386 19.88804,3.94402 43.23152,7.80034 23.34347,3.85633 45.64607,7.56292 49.56132,8.23686 l 7.11865,1.22535 -7.04182,5.90074 c -3.873,3.2454 -5.96831,5.90074 -4.65624,5.90074 1.31206,0 14.66616,-2.74576 29.67577,-6.1017 z M 309.53168,83.7749 c 16.02651,-13.49581 17.07801,-14.03705 25.16366,-12.95254 l 8.43825,1.13181 V 58.466029 c 0,-9.388375 -0.77276,-13.514473 -2.54237,-13.574774 -4.39828,-0.149878 -62.52954,17.304915 -62.53611,18.777416 -0.004,0.771456 3.42594,1.68671 7.62085,2.033899 l 7.62712,0.63125 -16.27118,12.95223 c -8.94916,7.12373 -16.55907,13.20822 -16.91093,13.52111 -0.35187,0.31288 6.05491,1.45489 14.23729,2.53779 8.18237,1.08291 15.6805,2.09163 16.66253,2.24161 0.98202,0.14998 9.31191,-6.06527 18.51089,-13.81166 z"
         id="path178" />
    </g>
  </g>
</svg>
