<?xml version="1.0" encoding="UTF-8" standalone="no"?>
<!-- Created with Inkscape (http://www.inkscape.org/) -->

<svg
   version="1.1"
   id="svg2"
   width="453.55933"
   height="443.38983"
   viewBox="0 0 453.55933 443.38983"
   sodipodi:docname="wireless router.svg"
   inkscape:version="1.2.1 (9c6d41e410, 2022-07-14)"
   xmlns:inkscape="http://www.inkscape.org/namespaces/inkscape"
   xmlns:sodipodi="http://sodipodi.sourceforge.net/DTD/sodipodi-0.dtd"
   xmlns="http://www.w3.org/2000/svg"
   xmlns:svg="http://www.w3.org/2000/svg">
  <defs
     id="defs6" />
  <sodipodi:namedview
     id="namedview4"
     pagecolor="#ffffff"
     bordercolor="#000000"
     borderopacity="0.25"
     inkscape:showpageshadow="2"
     inkscape:pageopacity="0.0"
     inkscape:pagecheckerboard="0"
     inkscape:deskcolor="#d1d1d1"
     showgrid="false"
     inkscape:zoom="1.3459896"
     inkscape:cx="166.79177"
     inkscape:cy="247.77308"
     inkscape:window-width="1920"
     inkscape:window-height="1001"
     inkscape:window-x="-9"
     inkscape:window-y="-9"
     inkscape:window-maximized="1"
     inkscape:current-layer="g170" />
  <g
     inkscape:groupmode="layer"
     inkscape:label="Image"
     id="g8">
    <g
       id="g170"
       transform="translate(8.405498,7.880151)">
      <path
         style="fill:#2b0000;fill-opacity:1;stroke-width:2.0339"
         d="m 201.35594,427.47274 c -55.04643,-5.2334 -82.33445,-10.12133 -111.683458,-20.00508 -34.37708,-11.57703 -56.59728,-25.2194 -67.23539,-41.28002 l -6.1659,-9.30883 v -55.58349 c 0,-30.57093 0.5946,-55.58351 1.32134,-55.58351 0.72674,0 5.53182,4.356 10.67797,9.67999 32.50146,33.62478 107.203268,53.97899 198.509158,54.08842 44.52812,0.0533 69.16762,-2.34442 104.58584,-10.17767 49.58372,-10.96615 82.49588,-26.8452 99.31247,-47.91508 l 6.61017,-8.28202 v 58.96412 58.96411 l -6.10364,8.42585 c -8.43702,11.64696 -30.07489,25.45886 -55.06788,35.15095 -24.68012,9.57078 -44.90531,14.57958 -77.13356,19.10227 -21.64369,3.03733 -81.13036,5.32837 -97.62712,3.75999 z M 183.05085,305.54906 c -79.486,-8.97879 -123.751718,-23.61968 -151.946148,-50.25627 -12.04183,-11.37646 -15.89759,-20.4144 -13.93808,-32.67097 5.84215,-36.54206 59.44151,-64.12385 145.545248,-74.89636 27.17396,-3.39976 98.281,-3.37989 126.10169,0.0352 77.10135,9.46455 130.08869,32.21034 146.13851,62.73267 3.25834,6.19645 2.91923,26.15715 -0.55861,32.88258 -7.32437,14.16376 -34.73626,32.64415 -62.45262,42.10397 -43.11624,14.71589 -73.31166,19.26013 -133.97473,20.16238 -26.28814,0.391 -51.00001,0.34904 -54.91526,-0.0931 z m -10.16949,-16.15951 c 41.28059,-7.01019 43.5947,-8.08781 28.03935,-13.05712 l -7.55388,-2.41315 18.39697,-16.64612 18.39696,-16.64609 -9.82613,-1.34724 c -22.68228,-3.10993 -24.564,-2.63493 -39.09211,9.86768 -7.39525,6.36421 -14.83687,12.72214 -16.53693,14.12872 -2.16662,1.7926 -5.36323,2.04494 -10.6888,0.84385 -4.17878,-0.94247 -8.01009,-1.04645 -8.51403,-0.23106 -0.50394,0.81539 -0.36472,8.06118 0.30937,16.10175 1.01729,12.13421 1.7799,14.4544 4.48641,13.64961 1.79343,-0.53329 11.9557,-2.44615 22.58282,-4.25083 z m 223.71427,-35.53228 c 11.23514,-7.62962 16.18333,-12.21326 13.18465,-12.21326 -2.07488,0 -86.86819,-14.13801 -92.35884,-15.39945 l -4.95146,-1.13756 5.96841,-4.87869 c 3.28261,-2.68326 5.51077,-4.90369 4.95145,-4.93426 -3.41856,-0.18692 -61.44344,11.86121 -62.57504,12.99278 -0.76135,0.76137 1.77205,7.23297 5.62979,14.38135 l 7.01406,12.99706 6.87311,-5.24239 6.87311,-5.24237 34.87215,5.48481 c 28.64617,4.50555 59.02405,9.93795 61.93289,11.07527 0.34105,0.13342 6.00462,-3.41415 12.58572,-7.88329 z M 167.33357,226.64749 c 15.40634,-3.73409 28.57399,-7.35171 29.26143,-8.03914 0.68745,-0.68746 -2.6622,-7.25443 -7.44365,-14.5933 -8.3618,-12.83417 -8.85753,-13.22347 -12.99025,-10.20135 -2.36318,1.72811 -5.58309,3.73926 -7.15535,4.46922 -1.57227,0.72996 -23.53837,-2.05798 -48.81356,-6.1954 -25.275198,-4.13742 -47.785408,-7.49277 -50.022698,-7.45634 -2.23729,0.0364 -9.55932,4.37819 -16.27119,9.64835 l -12.20339,9.58212 7.11865,1.54021 c 3.91525,0.84712 26.33898,4.86567 49.83051,8.93011 23.491528,4.06446 43.169488,7.8358 43.728808,8.38076 0.55933,0.54495 -1.72881,3.19237 -5.08474,5.88316 -5.24402,4.20463 -5.52991,4.88871 -2.0339,4.86659 2.23729,-0.0142 16.67299,-3.08091 32.07933,-6.81499 z m 106.19761,-26.86765 c 15.63665,-13.00034 16.35899,-13.35151 24.84616,-12.07878 l 8.74131,1.31084 v -14.36191 c 0,-7.89905 -0.49729,-14.36191 -1.10506,-14.36191 -0.60779,0 -15.9383,3.88983 -34.0678,8.64407 -27.29772,7.15849 -31.56453,8.75481 -24.82714,9.28846 4.47457,0.35442 8.82606,1.31947 9.66999,2.14456 0.84392,0.8251 -5.79167,6.88913 -14.74577,13.47563 -8.95409,6.58651 -16.28015,12.58696 -16.28015,13.33433 0,1.14635 18.05853,4.75959 28.54366,5.71117 1.71598,0.1558 10.36713,-5.74218 19.2248,-13.10646 z M 73.220342,119.82772 V 72.830449 h 5.08474 c 5,0 5.08475,-0.271186 5.08475,-16.271187 0,-16.000001 -0.0847,-16.271186 -5.08475,-16.271186 -5.04708,0 -5.08474,-0.1356 -5.08474,-18.305085 V 3.677907 h 11.18644 11.18644 v 18.305084 c 0,18.169491 -0.0377,18.305085 -5.08475,18.305085 -4.99999,0 -5.08474,0.271185 -5.08474,16.271186 0,16.000001 0.0847,16.271187 5.08474,16.271187 h 5.08475 v 43.406881 43.40687 l -8.3473,2.50091 c -4.59101,1.3755 -9.62491,2.99118 -11.18644,3.59039 -2.37911,0.91296 -2.83914,-6.52555 -2.83914,-45.90778 z m 287.796618,40.54994 -10.1695,-3.47016 -0.54901,-41.80173 -0.54903,-41.801728 6.14225,-0.901489 c 3.37823,-0.49582 8.888,-0.498496 12.24393,-0.006 l 6.10169,0.895539 v 45.531868 c 0,25.04253 -0.68644,45.41756 -1.52542,45.27785 -0.83898,-0.13971 -6.10169,-1.8156 -11.69491,-3.7242 z M 349.83051,21.982991 V 3.677907 h 12.20339 12.20339 V 21.982991 40.288076 H 362.0339 349.83051 Z"
         id="path178" />
    </g>
  </g>
</svg>
